<svg width="16" height="17" viewBox="0 0 16 17" fill="none" xmlns="http://www.w3.org/2000/svg">
<path d="M8 11.5708C9.10457 11.5708 10 10.6754 10 9.57083C10 8.46626 9.10457 7.57083 8 7.57083C6.89543 7.57083 6 8.46626 6 9.57083C6 10.6754 6.89543 11.5708 8 11.5708Z" stroke="url(#paint0_linear_86_343)" stroke-width="1.16888" stroke-linecap="round" stroke-linejoin="round"/>
<path d="M2 7.94754C2 7.56464 2 7.37319 2.04935 7.19688C2.09307 7.0407 2.16491 6.8938 2.26135 6.76341C2.37022 6.61621 2.52135 6.49867 2.82359 6.26359L7.34513 2.74684C7.57935 2.56467 7.69646 2.47359 7.82577 2.43858C7.93987 2.40768 8.06013 2.40768 8.17423 2.43858C8.30354 2.47359 8.42065 2.56467 8.65487 2.74684L13.1764 6.26359C13.4787 6.49867 13.6298 6.61621 13.7386 6.76341C13.8351 6.8938 13.9069 7.0407 13.9506 7.19688C14 7.37319 14 7.56464 14 7.94754V12.7708C14 13.5176 14 13.8909 13.8547 14.1762C13.7268 14.427 13.5229 14.631 13.272 14.7588C12.9868 14.9042 12.6134 14.9042 11.8667 14.9042H4.13333C3.3866 14.9042 3.01323 14.9042 2.72801 14.7588C2.47713 14.631 2.27316 14.427 2.14532 14.1762C2 13.8909 2 13.5176 2 12.7708V7.94754Z" stroke="url(#paint1_linear_86_343)" stroke-width="1.16888" stroke-linecap="round" stroke-linejoin="round"/>
<defs>
<linearGradient id="paint0_linear_86_343" x1="8" y1="2.41541" x2="8" y2="14.9042" gradientUnits="userSpaceOnUse">
<stop stop-color="#B81A3C"/>
<stop offset="1" stop-color="#B21986"/>
</linearGradient>
<linearGradient id="paint1_linear_86_343" x1="8" y1="2.41541" x2="8" y2="14.9042" gradientUnits="userSpaceOnUse">
<stop stop-color="#B81A3C"/>
<stop offset="1" stop-color="#B21986"/>
</linearGradient>
</defs>
</svg>
